<?xml version="1.0" encoding="UTF-8"?>
<svg width="12px" height="12px" viewBox="0 0 12 12" version="1.1" xmlns="http://www.w3.org/2000/svg" xmlns:xlink="http://www.w3.org/1999/xlink">
    <g id="页面-1" stroke="none" stroke-width="1" fill="none" fill-rule="evenodd">
        <g id="Agency-Center" transform="translate(-160, -356)">
            <g id="编组-3" transform="translate(18, 242)">
                <g id="编组-2备份" transform="translate(15, 113)">
                    <g id="编组" transform="translate(127, 1)">
                        <path d="M6,0 C2.694,0 0,2.694 0,6 C0,9.306 2.694,12 6,12 C9.306,12 12,9.306 12,6 C12,2.694 9.306,0 6,0 Z M11.1,7.842 C10.56,7.386 10.242,6.714 10.242,6 C10.242,5.286 10.56,4.614 11.094,4.158 C11.304,4.734 11.424,5.352 11.424,6 C11.43,6.648 11.31,7.266 11.1,7.842 L11.1,7.842 Z M7.836,0.9 C7.38,1.44 6.708,1.758 5.994,1.758 C5.28,1.758 4.614,1.44 4.158,0.9 C4.734,0.69 5.352,0.57 6,0.57 C6.648,0.57 7.266,0.69 7.836,0.9 Z M0.9,4.164 C1.44,4.62 1.758,5.292 1.758,6.006 C1.758,6.72 1.44,7.392 0.906,7.848 C0.696,7.272 0.576,6.654 0.576,6.006 C0.57,5.352 0.69,4.734 0.9,4.164 Z M4.164,11.1 C4.62,10.56 5.292,10.242 6.006,10.242 C6.72,10.242 7.392,10.56 7.848,11.094 C7.272,11.304 6.654,11.424 6.006,11.424 C5.352,11.43 4.734,11.31 4.164,11.1 L4.164,11.1 Z M8.388,10.866 C7.824,10.116 6.948,9.672 6.006,9.672 C5.064,9.672 4.182,10.122 3.624,10.872 C2.544,10.344 1.668,9.468 1.134,8.388 C1.884,7.824 2.328,6.948 2.328,6.006 C2.328,5.064 1.878,4.182 1.128,3.624 C1.656,2.544 2.532,1.668 3.612,1.14 C4.176,1.89 5.052,2.334 5.994,2.334 C6.936,2.334 7.818,1.884 8.376,1.134 C9.456,1.662 10.332,2.538 10.866,3.618 C10.116,4.182 9.672,5.058 9.672,6 C9.672,6.942 10.122,7.824 10.872,8.382 C10.338,9.462 9.468,10.338 8.388,10.866 Z" id="形状" fill="#E02020" fill-rule="nonzero"></path>
                        <path d="M6,3.438 C7.416,3.438 8.562,4.584 8.562,6 C8.562,7.416 7.416,8.562 6,8.562 C4.584,8.562 3.438,7.416 3.438,6 C3.438,4.584 4.584,3.438 6,3.438 Z M7,5 L5,5 L5,5.70395634 L6.21783011,5.70395634 C5.96776002,6.08185539 5.78497337,6.43656207 5.66947014,6.7680764 C5.55396692,7.09959072 5.46930193,7.51023192 5.41547519,8 L6.09840202,8 C6.12082983,7.64802183 6.16456406,7.3431105 6.22960471,7.08526603 C6.31146622,6.75375171 6.42304458,6.45293315 6.56433978,6.18281037 C6.6809644,5.96043656 6.82618447,5.75375171 7,5.5627558 L7,5 Z" id="形状结合" fill="#E02020" fill-rule="nonzero"></path>
                        <g id="7" transform="translate(5, 5)"></g>
                    </g>
                </g>
            </g>
        </g>
    </g>
</svg>