<svg width="24" height="24" viewBox="0 0 24 24" fill="none" xmlns="http://www.w3.org/2000/svg">
  <path
    d="M1.28399 13.4192C0.923571 13.4192 0.619468 13.2953 0.371681 13.0475C0.123894 12.7997 0 12.4881 0 12.1127V10.4232C0 10.0778 0.123894 9.77745 0.371681 9.52215C0.619468 9.26686 0.923571 9.13921 1.28399 9.13921H17.7956C17.9158 9.13921 18.0359 9.16173 18.1561 9.20679C17.5554 9.28187 16.9809 9.4358 16.4328 9.66857C15.8847 9.90134 15.3853 10.2017 14.9348 10.5696C14.4843 10.9375 14.0901 11.3655 13.7522 11.8536C13.4143 12.3417 13.1477 12.8635 12.9525 13.4192H1.28399ZM12.6146 14.8608C12.5996 14.981 12.5921 15.0936 12.5921 15.1987V15.5141C12.5921 16.1899 12.6897 16.8281 12.8849 17.4288C13.0802 18.0295 13.3505 18.5852 13.6959 19.0958H1.28399C0.923571 19.0958 0.619468 18.9719 0.371681 18.7241C0.123894 18.4763 0 18.1722 0 17.8118V16.1223C0 15.7769 0.123894 15.4803 0.371681 15.2325C0.619468 14.9847 0.923571 14.8608 1.28399 14.8608H12.6146ZM4.07723 7.72006C3.73183 7.72006 3.43523 7.59617 3.18745 7.34838C2.93966 7.10059 2.81577 6.79649 2.81577 6.43607V4.88177C2.81577 4.52135 2.93966 4.2135 3.18745 3.9582C3.43523 3.7029 3.73183 3.57526 4.07723 3.57526H21.2196C21.565 3.57526 21.8616 3.7029 22.1094 3.9582C22.3572 4.2135 22.4811 4.52135 22.4811 4.88177V6.43607C22.4811 6.79649 22.3572 7.10059 22.1094 7.34838C21.8616 7.59617 21.565 7.72006 21.2196 7.72006H4.07723ZM19.0346 10.6034C19.7104 10.6034 20.3486 10.7348 20.9493 10.9976C21.55 11.2604 22.0756 11.6133 22.5261 12.0563C22.9766 12.4994 23.3333 13.0212 23.5961 13.6219C23.8589 14.2226 23.9903 14.8608 23.9903 15.5366C23.9903 16.2274 23.8589 16.8732 23.5961 17.4739C23.3333 18.0746 22.9766 18.6002 22.5261 19.0507C22.0756 19.5012 21.55 19.8541 20.9493 20.1094C20.3486 20.3647 19.7104 20.4924 19.0346 20.4924C18.3588 20.4924 17.7206 20.3647 17.1199 20.1094C16.5192 19.8541 15.9935 19.5012 15.543 19.0507C15.0925 18.6002 14.7358 18.0746 14.473 17.4739C14.2102 16.8732 14.0788 16.2274 14.0788 15.5366C14.0788 14.8608 14.2102 14.2226 14.473 13.6219C14.7358 13.0212 15.0925 12.4994 15.543 12.0563C15.9935 11.6133 16.5192 11.2604 17.1199 10.9976C17.7206 10.7348 18.3588 10.6034 19.0346 10.6034ZM21.8278 16.3476C21.978 16.3476 22.1019 16.2687 22.1995 16.111C22.2971 15.9534 22.3459 15.7694 22.3459 15.5592C22.3459 15.3489 22.2971 15.1725 22.1995 15.0298C22.1019 14.8871 21.978 14.8158 21.8278 14.8158H19.7104V12.8335C19.7104 12.7134 19.6465 12.6082 19.5189 12.5181C19.3912 12.428 19.2148 12.383 18.9895 12.383C18.7492 12.383 18.5728 12.428 18.4602 12.5181C18.3475 12.6082 18.2912 12.7134 18.2912 12.8335V15.3114C18.2912 15.3564 18.2875 15.3977 18.2799 15.4353C18.2724 15.4728 18.2687 15.5141 18.2687 15.5592C18.2687 15.7694 18.3175 15.9534 18.4151 16.111C18.5127 16.2687 18.6366 16.3476 18.7868 16.3476H21.8278Z"
    fill="white" />
</svg>